<<<<<<< HEAD
# Alias OBJ Model File
# Exported from SketchUp, (c) 2000-2012 Trimble Navigation Limited
# File units = inches

mtllib tutorial.mtl

g Mesh1 Group1 Model

usemtl M_0016_Tomato
v -6.27551e-11 12 12
vt 1152 12
vn 0 1 -0
v 6.29825e-11 12 204
vt 1152 204
v 144 12 204
vt 1008 204
v 144 12 12
vt 1008 12
f 1/1/1 2/2/1 3/3/1 4/4/1 

vt 12 12
vn -1 0 6.5501e-13
v 7.07132e-11 0 216
vt 216 0
vt 204 12
f 1/5/2 5/6/2 2/7/2

v -7.07132e-11 0 3.77387e-10
vt 0 0
f 1/5/2 6/8/2 5/6/2

v -7.07132e-11 240 3.77387e-10
vt 0 240
f 6/8/2 1/5/2 7/9/2

v -6.27551e-11 234.131 12
vt 12 234.131
f 8/10/2 7/9/2 1/5/2

v 0 324 108
vt 108 324
f 7/9/2 8/10/2 9/11/2

v 0 308.798 108
vt 108 308.798
f 9/11/2 8/10/2 10/12/2

vt -1152 274.833
vn 4.02137e-13 -0.789352 0.613941
vt -1152 153.215
v 144 234.131 12
vt -1008 153.215
v 144 308.798 108
vt -1008 274.833
f 10/13/3 8/14/3 11/15/3 12/16/3 

vt -1152 234.131
vn 6.5501e-13 0 1
vt -1152 12
vt -1008 12
vt -1008 234.131
f 8/17/4 1/18/4 4/19/4 11/20/4 

v 144 234.131 204
vt 204 234.131
f 3/7/2 13/21/2 12/12/2 11/10/2 4/5/2 

vn -6.5501e-13 0 -1
v 6.29825e-11 234.131 204
vt 1152 234.131
vt 1008 234.131
f 2/1/5 14/22/5 13/23/5 3/4/5 

f 2/7/2 5/6/2 14/21/2

v 7.07132e-11 240 216
vt 216 240
f 15/24/2 14/21/2 5/6/2

f 9/11/2 14/21/2 15/24/2

f 9/11/2 10/12/2 14/21/2

vt 1152 -17.2853
vn -4.02137e-13 -0.789352 -0.613941
vt 1152 104.333
vt 1008 104.333
vt 1008 -17.2853
f 14/25/6 10/26/6 12/27/6 13/28/6 

v 1152 324 108
vt 0 113.667
vn 4.02137e-13 0.789352 0.613941
vt -1152 113.667
vt -1152 -23.1543
v 1152 240 216
vt 0 -23.1543
f 16/29/7 9/30/7 15/31/7 17/32/7 

v 1152 240 -3.77185e-10
vt 0 147.346
vn -4.02137e-13 0.789352 -0.613941
vt 1152 147.346
vt 1152 284.167
vt 0 284.167
f 18/33/8 7/34/8 9/35/8 16/36/8 

v 1152 0 -3.77185e-10
vt 1152 0
vt 1152 240
f 19/8/5 6/37/5 7/38/5 18/9/5 

vn 0 -1 0
v 1152 0 216
vt 0 216
vt -1152 216
vt -1152 0
f 19/8/9 20/39/9 5/40/9 6/41/9 

vn 1 0 -6.5501e-13
vt -108 324
vt -216 240
vt -216 0
f 18/9/10 16/42/10 17/43/10 20/44/10 19/8/10 

v 864 63.4375 216
vt -288 63.4375
f 21/45/4 20/8/4 17/9/4

f 20/8/4 21/45/4 5/41/4

v 744 63.4375 216
vt -408 63.4375
f 22/46/4 5/41/4 21/45/4

vt -1152 240
f 5/41/4 22/46/4 15/47/4

v 744 161.75 216
vt -408 161.75
f 15/47/4 22/46/4 23/48/4

vt -216 161.75
vn 1 0 -6.63173e-13
vt -216 63.4375
v 744 63.4375 210
vt -210 63.4375
v 744 161.75 210
vt -210 161.75
f 23/49/11 22/50/11 24/51/11 25/52/11 

vt 408 216
vt 288 216
v 864 63.4375 210
vt 288 210
vt 408 210
f 22/53/1 21/54/1 26/55/1 24/56/1 

vt 216 63.4375
vn -1 0 6.63173e-13
v 864 161.75 216
vt 216 161.75
v 864 161.75 210
vt 210 161.75
vt 210 63.4375
f 21/57/12 27/58/12 28/59/12 26/60/12 

vt -288 161.75
f 21/45/4 17/9/4 27/61/4

f 27/61/4 17/9/4 23/48/4

f 15/47/4 23/48/4 17/9/4

vt -288 216
vt -408 216
vt -408 210
vt -288 210
f 27/62/9 23/63/9 25/64/9 28/65/9 

vn 6.5512e-13 0 1
f 25/48/13 24/46/13 26/45/13 28/61/13 

=======
# Alias OBJ Model File
# Exported from SketchUp, (c) 2000-2012 Trimble Navigation Limited
# File units = inches

mtllib tutorial.mtl

g Mesh1 Group1 Model

usemtl M_0016_Tomato
v -6.27551e-11 12 12
vt 1152 12
vn 0 1 -0
v 6.29825e-11 12 204
vt 1152 204
v 144 12 204
vt 1008 204
v 144 12 12
vt 1008 12
f 1/1/1 2/2/1 3/3/1 4/4/1 

vt 12 12
vn -1 0 6.5501e-13
v 7.07132e-11 0 216
vt 216 0
vt 204 12
f 1/5/2 5/6/2 2/7/2

v -7.07132e-11 0 3.77387e-10
vt 0 0
f 1/5/2 6/8/2 5/6/2

v -7.07132e-11 240 3.77387e-10
vt 0 240
f 6/8/2 1/5/2 7/9/2

v -6.27551e-11 234.131 12
vt 12 234.131
f 8/10/2 7/9/2 1/5/2

v 0 324 108
vt 108 324
f 7/9/2 8/10/2 9/11/2

v 0 308.798 108
vt 108 308.798
f 9/11/2 8/10/2 10/12/2

vt -1152 274.833
vn 4.02137e-13 -0.789352 0.613941
vt -1152 153.215
v 144 234.131 12
vt -1008 153.215
v 144 308.798 108
vt -1008 274.833
f 10/13/3 8/14/3 11/15/3 12/16/3 

vt -1152 234.131
vn 6.5501e-13 0 1
vt -1152 12
vt -1008 12
vt -1008 234.131
f 8/17/4 1/18/4 4/19/4 11/20/4 

v 144 234.131 204
vt 204 234.131
f 3/7/2 13/21/2 12/12/2 11/10/2 4/5/2 

vn -6.5501e-13 0 -1
v 6.29825e-11 234.131 204
vt 1152 234.131
vt 1008 234.131
f 2/1/5 14/22/5 13/23/5 3/4/5 

f 2/7/2 5/6/2 14/21/2

v 7.07132e-11 240 216
vt 216 240
f 15/24/2 14/21/2 5/6/2

f 9/11/2 14/21/2 15/24/2

f 9/11/2 10/12/2 14/21/2

vt 1152 -17.2853
vn -4.02137e-13 -0.789352 -0.613941
vt 1152 104.333
vt 1008 104.333
vt 1008 -17.2853
f 14/25/6 10/26/6 12/27/6 13/28/6 

v 1152 324 108
vt 0 113.667
vn 4.02137e-13 0.789352 0.613941
vt -1152 113.667
vt -1152 -23.1543
v 1152 240 216
vt 0 -23.1543
f 16/29/7 9/30/7 15/31/7 17/32/7 

v 1152 240 -3.77185e-10
vt 0 147.346
vn -4.02137e-13 0.789352 -0.613941
vt 1152 147.346
vt 1152 284.167
vt 0 284.167
f 18/33/8 7/34/8 9/35/8 16/36/8 

v 1152 0 -3.77185e-10
vt 1152 0
vt 1152 240
f 19/8/5 6/37/5 7/38/5 18/9/5 

vn 0 -1 0
v 1152 0 216
vt 0 216
vt -1152 216
vt -1152 0
f 19/8/9 20/39/9 5/40/9 6/41/9 

vn 1 0 -6.5501e-13
vt -108 324
vt -216 240
vt -216 0
f 18/9/10 16/42/10 17/43/10 20/44/10 19/8/10 

v 864 63.4375 216
vt -288 63.4375
f 21/45/4 20/8/4 17/9/4

f 20/8/4 21/45/4 5/41/4

v 744 63.4375 216
vt -408 63.4375
f 22/46/4 5/41/4 21/45/4

vt -1152 240
f 5/41/4 22/46/4 15/47/4

v 744 161.75 216
vt -408 161.75
f 15/47/4 22/46/4 23/48/4

vt -216 161.75
vn 1 0 -6.63173e-13
vt -216 63.4375
v 744 63.4375 210
vt -210 63.4375
v 744 161.75 210
vt -210 161.75
f 23/49/11 22/50/11 24/51/11 25/52/11 

vt 408 216
vt 288 216
v 864 63.4375 210
vt 288 210
vt 408 210
f 22/53/1 21/54/1 26/55/1 24/56/1 

vt 216 63.4375
vn -1 0 6.63173e-13
v 864 161.75 216
vt 216 161.75
v 864 161.75 210
vt 210 161.75
vt 210 63.4375
f 21/57/12 27/58/12 28/59/12 26/60/12 

vt -288 161.75
f 21/45/4 17/9/4 27/61/4

f 27/61/4 17/9/4 23/48/4

f 15/47/4 23/48/4 17/9/4

vt -288 216
vt -408 216
vt -408 210
vt -288 210
f 27/62/9 23/63/9 25/64/9 28/65/9 

vn 6.5512e-13 0 1
f 25/48/13 24/46/13 26/45/13 28/61/13 

>>>>>>> 2272f22fa605f43caa7ac3224b25156ccf82b5cf
